<svg xmlns="http://www.w3.org/2000/svg" xmlns:xlink="http://www.w3.org/1999/xlink" style="background: rgb(20, 36, 60)" viewBox="0 0 2280 1063">
<g transform="translate(1140,531.5) scale(1,1) translate(-1140,-531.5)"><path d="M-100 553.32C-44.43 591.04 -39.65 567.24 7.83 567.24S67.74 589.84 115.65 589.84S170.86 548.59 223.48 548.59S281.42 552.21 331.3 552.21S388.04 543.86 439.13 543.86S493.73 579.64 546.96 579.64S605.11 562.61 654.78 562.61S709.33 590.82 762.61 590.82S818.54 598.1 870.43 598.1S931.05 578.31 978.26 578.31S1034.12 595.81 1086.09 595.81S1142.43 596.03 1193.91 596.03S1249.76 531.56 1301.74 531.56S1361.73 572.48 1409.57 572.48S1468.44 592.77 1517.39 592.77S1575.61 564.26 1625.22 564.26S1680.79 557.02 1733.04 557.02S1787.28 571.32 1840.87 571.32S1899.55 533.18 1948.7 533.18S2009.27 599.37 2056.52 599.37S2111.01 535.42 2164.35 535.42S2225.29 572 2272.17 572S2329.97 555.87 2380 555.87S2436.69 549.91 2487.83 549.91L2380 1063 L-100 1063 Z" fill="#0a2d4a" stroke-width="0">
  <animate attributeName="d" dur="36.36363636363637s" repeatCount="indefinite" values="M-100 553.32C-44.43 591.04 -39.65 567.24 7.83 567.24S67.74 589.84 115.65 589.84S170.86 548.59 223.48 548.59S281.42 552.21 331.3 552.21S388.04 543.86 439.13 543.86S493.73 579.64 546.96 579.64S605.11 562.61 654.78 562.61S709.33 590.82 762.61 590.82S818.54 598.1 870.43 598.1S931.05 578.31 978.26 578.31S1034.12 595.81 1086.09 595.81S1142.43 596.03 1193.91 596.03S1249.76 531.56 1301.74 531.56S1361.73 572.48 1409.57 572.48S1468.44 592.77 1517.39 592.77S1575.61 564.26 1625.22 564.26S1680.79 557.02 1733.04 557.02S1787.28 571.32 1840.87 571.32S1899.55 533.18 1948.7 533.18S2009.27 599.37 2056.52 599.37S2111.01 535.42 2164.35 535.42S2225.29 572 2272.17 572S2329.97 555.87 2380 555.87S2436.69 549.91 2487.83 549.91L2380 1063 L-100 1063 Z;M-100 548C-42.48 554.66 -42.13 548.11 7.83 548.11S63.05 575.45 115.65 575.45S172.92 546.66 223.48 546.66S281.04 563.33 331.3 563.33S390.97 548.88 439.13 548.88S499.38 578.72 546.96 578.72S602.04 599.79 654.78 599.79S710.6 561.59 762.61 561.59S823.22 567.96 870.43 567.96S928.69 560.85 978.26 560.85S1032.35 542.97 1086.09 542.97S1145.33 542.86 1193.91 542.86S1254.2 562.55 1301.74 562.55S1356.02 554.76 1409.57 554.76S1464.05 587.94 1517.39 587.94S1576.6 554.27 1625.22 554.27S1685.35 555.22 1733.04 555.22S1788.27 566.32 1840.87 566.32S1898.56 564.86 1948.7 564.86S2005.61 542.78 2056.52 542.78S2115.87 547.82 2164.35 547.82S2219.07 564.7 2272.17 564.7S2332.18 549.09 2380 549.09S2439.1 547.18 2487.83 547.18L2380 1063 L-100 1063 Z;M-100 553.32C-44.43 591.04 -39.65 567.24 7.83 567.24S67.74 589.84 115.65 589.84S170.86 548.59 223.48 548.59S281.42 552.21 331.3 552.21S388.04 543.86 439.13 543.86S493.73 579.64 546.96 579.64S605.11 562.61 654.78 562.61S709.33 590.82 762.61 590.82S818.54 598.1 870.43 598.1S931.05 578.31 978.26 578.31S1034.12 595.81 1086.09 595.81S1142.43 596.03 1193.91 596.03S1249.76 531.56 1301.74 531.56S1361.73 572.48 1409.57 572.48S1468.44 592.77 1517.39 592.77S1575.61 564.26 1625.22 564.26S1680.79 557.02 1733.04 557.02S1787.28 571.32 1840.87 571.32S1899.55 533.18 1948.7 533.18S2009.27 599.37 2056.52 599.37S2111.01 535.42 2164.35 535.42S2225.29 572 2272.17 572S2329.97 555.87 2380 555.87S2436.69 549.91 2487.83 549.91L2380 1063 L-100 1063 Z"></animate>
  <animateTransform attributeName="transform" type="translate" dur="36.36363636363637s" begin="0s" repeatCount="indefinite" values="0;10;0" calcMode="spline" keySplines="0.3 0 0.7 1;0.3 0 0.7 1"></animateTransform>
</path><path d="M-100 643.01C-42.94 635.18 -37.97 615.86 11.46 615.86S67.25 627.07 122.92 627.07S185.18 598.78 234.38 598.78S293.81 583.41 345.84 583.41S408.24 631.8 457.3 631.8S513.99 609.14 568.76 609.14S630.26 622.62 680.22 622.62S736.31 569.19 791.69 569.19S852.53 623.72 903.15 623.72S961.28 578.81 1014.61 578.81S1075.14 626.82 1126.07 626.82S1181.92 637.71 1237.53 637.71S1294.21 607.74 1348.99 607.74S1409.34 622.33 1460.45 622.33S1517.58 632.99 1571.91 632.99S1632.28 597.28 1683.37 597.28S1743.97 590.11 1794.83 590.11S1856.55 615.79 1906.29 615.79S1962.15 644.77 2017.75 644.77S2080.19 583.07 2129.21 583.07S2191.62 621.28 2240.67 621.28S2298.13 608.92 2352.13 608.92S2412.43 639.57 2463.6 639.57L2380 1063 L-100 1063 Z" fill="#1b3b58" stroke-width="0">
  <animate attributeName="d" dur="31.818181818181817s" repeatCount="indefinite" values="M-100 643.01C-42.94 635.18 -37.97 615.86 11.46 615.86S67.25 627.07 122.92 627.07S185.18 598.78 234.38 598.78S293.81 583.41 345.84 583.41S408.24 631.8 457.3 631.8S513.99 609.14 568.76 609.14S630.26 622.62 680.22 622.62S736.31 569.19 791.69 569.19S852.53 623.72 903.15 623.72S961.28 578.81 1014.61 578.81S1075.14 626.82 1126.07 626.82S1181.92 637.71 1237.53 637.71S1294.21 607.74 1348.99 607.74S1409.34 622.33 1460.45 622.33S1517.58 632.99 1571.91 632.99S1632.28 597.28 1683.37 597.28S1743.97 590.11 1794.83 590.11S1856.55 615.79 1906.29 615.79S1962.15 644.77 2017.75 644.77S2080.19 583.07 2129.21 583.07S2191.62 621.28 2240.67 621.28S2298.13 608.92 2352.13 608.92S2412.43 639.57 2463.6 639.57L2380 1063 L-100 1063 Z;M-100 624.05C-42.17 569.08 -38.63 616.6 11.46 616.6S71.64 602.11 122.92 602.11S179.42 608.93 234.38 608.93S297.04 586 345.84 586S404.19 608.53 457.3 608.53S514.87 593.91 568.76 593.91S627.33 627.38 680.22 627.38S738.69 611.38 791.69 611.38S850.97 613.05 903.15 613.05S964.76 587.63 1014.61 587.63S1075.28 612.58 1126.07 612.58S1187.56 633.13 1237.53 633.13S1296.73 628.02 1348.99 628.02S1407.2 589.42 1460.45 589.42S1518.23 624.02 1571.91 624.02S1633.61 598.52 1683.37 598.52S1739.19 616.08 1794.83 616.08S1855.52 577.14 1906.29 577.14S1966.52 606.71 2017.75 606.71S2076.86 636.2 2129.21 636.2S2186.32 593.71 2240.67 593.71S2299.82 615.24 2352.13 615.24S2408.14 616.78 2463.6 616.78L2380 1063 L-100 1063 Z;M-100 643.01C-42.94 635.18 -37.97 615.86 11.46 615.86S67.25 627.07 122.92 627.07S185.18 598.78 234.38 598.78S293.81 583.41 345.84 583.41S408.24 631.8 457.3 631.8S513.99 609.14 568.76 609.14S630.26 622.62 680.22 622.62S736.31 569.19 791.69 569.19S852.53 623.72 903.15 623.72S961.28 578.81 1014.61 578.81S1075.14 626.82 1126.07 626.82S1181.92 637.71 1237.53 637.71S1294.21 607.74 1348.99 607.74S1409.34 622.33 1460.45 622.33S1517.58 632.99 1571.91 632.99S1632.28 597.28 1683.37 597.28S1743.97 590.11 1794.83 590.11S1856.55 615.79 1906.29 615.79S1962.15 644.77 2017.75 644.77S2080.19 583.07 2129.21 583.07S2191.62 621.28 2240.67 621.28S2298.13 608.92 2352.13 608.92S2412.43 639.57 2463.6 639.57L2380 1063 L-100 1063 Z"></animate>
  <animateTransform attributeName="transform" type="translate" dur="31.818181818181817s" begin="-3.977272727272727s" repeatCount="indefinite" values="0;10;0" calcMode="spline" keySplines="0.3 0 0.7 1;0.3 0 0.7 1"></animateTransform>
</path><path d="M-100 670.14C-41.7 613.21 -37.75 671.03 15.35 671.03S77.46 639.75 130.7 639.75S190.19 630.47 246.05 630.47S304.18 642.92 361.4 642.92S425.62 638.29 476.74 638.29S537.4 618.29 592.09 618.29S650.5 642 707.44 642S770.81 639.84 822.79 639.84S881.38 646.16 938.14 646.16S997.94 666.52 1053.49 666.52S1116.02 617.04 1168.84 617.04S1226.99 664.66 1284.19 664.66S1346.93 658.87 1399.53 658.87S1461.36 669.94 1514.88 669.94S1572.57 677.41 1630.23 677.41S1688.48 655.66 1745.58 655.66S1805.31 675.16 1860.93 675.16S1924.18 663.18 1976.28 663.18S2036.05 632.12 2091.63 632.12S2149.36 666.15 2206.98 666.15S2268.11 671.61 2322.33 671.61S2382.04 607.28 2437.67 607.28L2380 1063 L-100 1063 Z" fill="#2a4966" stroke-width="0">
  <animate attributeName="d" dur="27.272727272727273s" repeatCount="indefinite" values="M-100 670.14C-41.7 613.21 -37.75 671.03 15.35 671.03S77.46 639.75 130.7 639.75S190.19 630.47 246.05 630.47S304.18 642.92 361.4 642.92S425.62 638.29 476.74 638.29S537.4 618.29 592.09 618.29S650.5 642 707.44 642S770.81 639.84 822.79 639.84S881.38 646.16 938.14 646.16S997.94 666.52 1053.49 666.52S1116.02 617.04 1168.84 617.04S1226.99 664.66 1284.19 664.66S1346.93 658.87 1399.53 658.87S1461.36 669.94 1514.88 669.94S1572.57 677.41 1630.23 677.41S1688.48 655.66 1745.58 655.66S1805.31 675.16 1860.93 675.16S1924.18 663.18 1976.28 663.18S2036.05 632.12 2091.63 632.12S2149.36 666.15 2206.98 666.15S2268.11 671.61 2322.33 671.61S2382.04 607.28 2437.67 607.28L2380 1063 L-100 1063 Z;M-100 657.36C-35.89 617.12 -36.47 629.75 15.35 629.75S77.66 623.52 130.7 623.52S191.47 684.62 246.05 684.62S305.74 646.78 361.4 646.78S420.41 627.28 476.74 627.28S540.57 632.29 592.09 632.29S649.87 663.36 707.44 663.36S769.15 652.74 822.79 652.74S886.89 622.52 938.14 622.52S1001.71 637.38 1053.49 637.38S1112.55 647.09 1168.84 647.09S1228.48 653.57 1284.19 653.57S1343.99 670.79 1399.53 670.79S1460.6 674.18 1514.88 674.18S1573.79 642.15 1630.23 642.15S1694.39 650.84 1745.58 650.84S1808.83 664.74 1860.93 664.74S1922.83 686.21 1976.28 686.21S2037.07 665.39 2091.63 665.39S2149.74 633.4 2206.98 633.4S2265.17 658.93 2322.33 658.93S2382.74 636.14 2437.67 636.14L2380 1063 L-100 1063 Z;M-100 670.14C-41.7 613.21 -37.75 671.03 15.35 671.03S77.46 639.75 130.7 639.75S190.19 630.47 246.05 630.47S304.18 642.92 361.4 642.92S425.62 638.29 476.74 638.29S537.4 618.29 592.09 618.29S650.5 642 707.44 642S770.81 639.84 822.79 639.84S881.38 646.16 938.14 646.16S997.94 666.52 1053.49 666.52S1116.02 617.04 1168.84 617.04S1226.99 664.66 1284.19 664.66S1346.93 658.87 1399.53 658.87S1461.36 669.94 1514.88 669.94S1572.57 677.41 1630.23 677.41S1688.48 655.66 1745.58 655.66S1805.31 675.16 1860.93 675.16S1924.18 663.18 1976.28 663.18S2036.05 632.12 2091.63 632.12S2149.36 666.15 2206.98 666.15S2268.11 671.61 2322.33 671.61S2382.04 607.28 2437.67 607.28L2380 1063 L-100 1063 Z"></animate>
  <animateTransform attributeName="transform" type="translate" dur="27.272727272727273s" begin="-6.818181818181818s" repeatCount="indefinite" values="0;10;0" calcMode="spline" keySplines="0.3 0 0.7 1;0.3 0 0.7 1"></animateTransform>
</path><path d="M-100 686.31C-34.38 709.42 -34.5 698.34 19.52 698.34S80.52 701.63 139.04 701.63S199.16 652.6 258.55 652.6S323.14 722.98 378.07 722.98S440.87 696.26 497.59 696.26S558.29 648.79 617.11 648.79S681.56 698.5 736.63 698.5S799.68 643 856.14 643S918 661.77 975.66 661.77S1036.25 697.19 1095.18 697.19S1157.88 687.01 1214.7 687.01S1274.5 649.39 1334.22 649.39S1399.48 738.06 1453.73 738.06S1520.07 690.98 1573.25 690.98S1637.05 715.83 1692.77 715.83S1758.51 672.83 1812.29 672.83S1875.47 644.78 1931.81 644.78S1995.85 674.2 2051.33 674.2S2116.31 662.59 2170.84 662.59S2232.53 671.48 2290.36 671.48S2352.84 678.79 2409.88 678.79L2380 1063 L-100 1063 Z" fill="#395875" stroke-width="0">
  <animate attributeName="d" dur="22.727272727272727s" repeatCount="indefinite" values="M-100 686.31C-34.38 709.42 -34.5 698.34 19.52 698.34S80.52 701.63 139.04 701.63S199.16 652.6 258.55 652.6S323.14 722.98 378.07 722.98S440.87 696.26 497.59 696.26S558.29 648.79 617.11 648.79S681.56 698.5 736.63 698.5S799.68 643 856.14 643S918 661.77 975.66 661.77S1036.25 697.19 1095.18 697.19S1157.88 687.01 1214.7 687.01S1274.5 649.39 1334.22 649.39S1399.48 738.06 1453.73 738.06S1520.07 690.98 1573.25 690.98S1637.05 715.83 1692.77 715.83S1758.51 672.83 1812.29 672.83S1875.47 644.78 1931.81 644.78S1995.85 674.2 2051.33 674.2S2116.31 662.59 2170.84 662.59S2232.53 671.48 2290.36 671.48S2352.84 678.79 2409.88 678.79L2380 1063 L-100 1063 Z;M-100 709C-34.62 690.27 -34.52 674.98 19.52 674.98S85.66 649.79 139.04 649.79S205.26 693.76 258.55 693.76S321.23 708.98 378.07 708.98S439.5 676.22 497.59 676.22S559.87 680.8 617.11 680.8S676.93 653.85 736.63 653.85S803.15 649.66 856.14 649.66S919.16 704.95 975.66 704.95S1037.57 666.29 1095.18 666.29S1157.23 721.23 1214.7 721.23S1276.2 682.75 1334.22 682.75S1396.93 712.99 1453.73 712.99S1514.15 658.12 1573.25 658.12S1636.67 708.42 1692.77 708.42S1759.06 672.81 1812.29 672.81S1872.58 698.6 1931.81 698.6S1996.86 697.33 2051.33 697.33S2116.19 686.16 2170.84 686.16S2232.11 682.01 2290.36 682.01S2356.69 659.86 2409.88 659.86L2380 1063 L-100 1063 Z;M-100 686.31C-34.38 709.42 -34.5 698.34 19.52 698.34S80.52 701.63 139.04 701.63S199.16 652.6 258.55 652.6S323.14 722.98 378.07 722.98S440.87 696.26 497.59 696.26S558.29 648.79 617.11 648.79S681.56 698.5 736.63 698.5S799.68 643 856.14 643S918 661.77 975.66 661.77S1036.25 697.19 1095.18 697.19S1157.88 687.01 1214.7 687.01S1274.5 649.39 1334.22 649.39S1399.48 738.06 1453.73 738.06S1520.07 690.98 1573.25 690.98S1637.05 715.83 1692.77 715.83S1758.51 672.83 1812.29 672.83S1875.47 644.78 1931.81 644.78S1995.85 674.2 2051.33 674.2S2116.31 662.59 2170.84 662.59S2232.53 671.48 2290.36 671.48S2352.84 678.79 2409.88 678.79L2380 1063 L-100 1063 Z"></animate>
  <animateTransform attributeName="transform" type="translate" dur="22.727272727272727s" begin="-8.522727272727273s" repeatCount="indefinite" values="0;10;0" calcMode="spline" keySplines="0.3 0 0.7 1;0.3 0 0.7 1"></animateTransform>
</path><path d="M-100 733.52C-36.55 757.38 -33.9 690.97 24 690.97S86.73 731.64 148 731.64S213.33 717.72 272 717.72S339.17 734.13 396 734.13S462.44 718.28 520 718.28S583.16 734.23 644 734.23S706.76 741.5 768 741.5S836 734.94 892 734.94S955.55 732.28 1016 732.28S1084.82 730.05 1140 730.05S1207.96 758.16 1264 758.16S1326.64 744.03 1388 744.03S1452.11 698.22 1512 698.22S1578.76 750.23 1636 750.23S1700.7 705.83 1760 705.83S1823.34 701.9 1884 701.9S1949.12 758.34 2008 758.34S2074.47 716.73 2132 716.73S2197.98 699.08 2256 699.08S2318.14 765.35 2380 765.35S2444.72 771.43 2504 771.43L2380 1063 L-100 1063 Z" fill="#486784" stroke-width="0">
  <animate attributeName="d" dur="18.181818181818183s" repeatCount="indefinite" values="M-100 733.52C-36.55 757.38 -33.9 690.97 24 690.97S86.73 731.64 148 731.64S213.33 717.72 272 717.72S339.17 734.13 396 734.13S462.44 718.28 520 718.28S583.16 734.23 644 734.23S706.76 741.5 768 741.5S836 734.94 892 734.94S955.55 732.28 1016 732.28S1084.82 730.05 1140 730.05S1207.96 758.16 1264 758.16S1326.64 744.03 1388 744.03S1452.11 698.22 1512 698.22S1578.76 750.23 1636 750.23S1700.7 705.83 1760 705.83S1823.34 701.9 1884 701.9S1949.12 758.34 2008 758.34S2074.47 716.73 2132 716.73S2197.98 699.08 2256 699.08S2318.14 765.35 2380 765.35S2444.72 771.43 2504 771.43L2380 1063 L-100 1063 Z;M-100 743.17C-36.83 698.3 -34.62 737.14 24 737.14S91.1 722.6 148 722.6S216.61 729.77 272 729.77S337.04 756.27 396 756.27S459.95 718.82 520 718.82S587.56 725.04 644 725.04S708.74 729.26 768 729.26S833.18 686.11 892 686.11S955.07 737 1016 737S1084.45 709.74 1140 709.74S1207.3 741.76 1264 741.76S1326.13 770.59 1388 770.59S1451.43 739 1512 739S1574.95 692.45 1636 692.45S1704.45 758.36 1760 758.36S1823.89 780.79 1884 780.79S1949.98 776.77 2008 776.77S2070.62 719.68 2132 719.68S2198.41 762.79 2256 762.79S2320.11 679.16 2380 679.16S2447.04 748.57 2504 748.57L2380 1063 L-100 1063 Z;M-100 733.52C-36.55 757.38 -33.9 690.97 24 690.97S86.73 731.64 148 731.64S213.33 717.72 272 717.72S339.17 734.13 396 734.13S462.44 718.28 520 718.28S583.16 734.23 644 734.23S706.76 741.5 768 741.5S836 734.94 892 734.94S955.55 732.28 1016 732.28S1084.82 730.05 1140 730.05S1207.96 758.16 1264 758.16S1326.64 744.03 1388 744.03S1452.11 698.22 1512 698.22S1578.76 750.23 1636 750.23S1700.7 705.83 1760 705.83S1823.34 701.9 1884 701.9S1949.12 758.34 2008 758.34S2074.47 716.73 2132 716.73S2197.98 699.08 2256 699.08S2318.14 765.35 2380 765.35S2444.72 771.43 2504 771.43L2380 1063 L-100 1063 Z"></animate>
  <animateTransform attributeName="transform" type="translate" dur="18.181818181818183s" begin="-9.090909090909092s" repeatCount="indefinite" values="0;10;0" calcMode="spline" keySplines="0.3 0 0.7 1;0.3 0 0.7 1"></animateTransform>
</path><path d="M-100 775.5C-30.96 744.74 -30.64 800.63 28.83 800.63S95.9 778.4 157.66 778.4S227.73 730.6 286.49 730.6S357.31 757.68 415.32 757.68S483.05 806.79 544.16 806.79S615.34 775.47 672.99 775.47S742.52 794.9 801.82 794.9S866.58 751.39 930.65 751.39S998.22 820.68 1059.48 820.68S1127.09 743.36 1188.31 743.36S1257.47 783.93 1317.14 783.93S1384.58 770.87 1445.97 770.87S1512.56 762.33 1574.81 762.33S1643.44 767.96 1703.64 767.96S1768.61 760.3 1832.47 760.3S1901.18 764.26 1961.3 764.26S2027.28 795.39 2090.13 795.39S2158.89 744.99 2218.96 744.99S2285.26 821.42 2347.79 821.42S2417.4 761.72 2476.62 761.72L2380 1063 L-100 1063 Z" fill="#577693" stroke-width="0">
  <animate attributeName="d" dur="13.636363636363637s" repeatCount="indefinite" values="M-100 775.5C-30.96 744.74 -30.64 800.63 28.83 800.63S95.9 778.4 157.66 778.4S227.73 730.6 286.49 730.6S357.31 757.68 415.32 757.68S483.05 806.79 544.16 806.79S615.34 775.47 672.99 775.47S742.52 794.9 801.82 794.9S866.58 751.39 930.65 751.39S998.22 820.68 1059.48 820.68S1127.09 743.36 1188.31 743.36S1257.47 783.93 1317.14 783.93S1384.58 770.87 1445.97 770.87S1512.56 762.33 1574.81 762.33S1643.44 767.96 1703.64 767.96S1768.61 760.3 1832.47 760.3S1901.18 764.26 1961.3 764.26S2027.28 795.39 2090.13 795.39S2158.89 744.99 2218.96 744.99S2285.26 821.42 2347.79 821.42S2417.4 761.72 2476.62 761.72L2380 1063 L-100 1063 Z;M-100 817.48C-35.52 775.23 -34.22 780.68 28.83 780.68S97.84 746.3 157.66 746.3S227.58 791.82 286.49 791.82S352.89 801.04 415.32 801.04S480.03 788.9 544.16 788.9S612.37 760.78 672.99 760.78S744.37 825.89 801.82 825.89S868.43 757.09 930.65 757.09S996.18 806.59 1059.48 806.59S1124.92 803.77 1188.31 803.77S1253.35 786.75 1317.14 786.75S1388.21 763.82 1445.97 763.82S1515.9 775.67 1574.81 775.67S1645.93 766.07 1703.64 766.07S1770.28 769.07 1832.47 769.07S1897.77 777.51 1961.3 777.51S2031.02 813.44 2090.13 813.44S2161.4 813.86 2218.96 813.86S2285.69 766.39 2347.79 766.39S2417.21 727.16 2476.62 727.16L2380 1063 L-100 1063 Z;M-100 775.5C-30.96 744.74 -30.64 800.63 28.83 800.63S95.9 778.4 157.66 778.4S227.73 730.6 286.49 730.6S357.31 757.68 415.32 757.68S483.05 806.79 544.16 806.79S615.34 775.47 672.99 775.47S742.52 794.9 801.82 794.9S866.58 751.39 930.65 751.39S998.22 820.68 1059.48 820.68S1127.09 743.36 1188.31 743.36S1257.47 783.93 1317.14 783.93S1384.58 770.87 1445.97 770.87S1512.56 762.33 1574.81 762.33S1643.44 767.96 1703.64 767.96S1768.61 760.3 1832.47 760.3S1901.18 764.26 1961.3 764.26S2027.28 795.39 2090.13 795.39S2158.89 744.99 2218.96 744.99S2285.26 821.42 2347.79 821.42S2417.4 761.72 2476.62 761.72L2380 1063 L-100 1063 Z"></animate>
  <animateTransform attributeName="transform" type="translate" dur="13.636363636363637s" begin="-8.522727272727273s" repeatCount="indefinite" values="0;10;0" calcMode="spline" keySplines="0.3 0 0.7 1;0.3 0 0.7 1"></animateTransform>
</path><path d="M-100 774.63C-27.59 789.54 -28.96 863.65 34.05 863.65S102.15 812.78 168.11 812.78S238.12 808.48 302.16 808.48S374.71 856.12 436.22 856.12S505.27 779.32 570.27 779.32S642.92 760.74 704.32 760.74S775 844.46 838.38 844.46S909.83 861.59 972.43 861.59S1043.12 809.66 1106.49 809.66S1173.86 778.35 1240.54 778.35S1313.87 818.08 1374.59 818.08S1444.2 874.81 1508.65 874.81S1578.11 824.92 1642.7 824.92S1712.96 791.27 1776.76 791.27S1846.82 845.75 1910.81 845.75S1982.39 813.93 2044.86 813.93S2118.69 864.78 2178.92 864.78S2252.02 771.07 2312.97 771.07S2383.7 820.44 2447.03 820.44L2380 1063 L-100 1063 Z" fill="#6686a2" stroke-width="0">
  <animate attributeName="d" dur="9.090909090909092s" repeatCount="indefinite" values="M-100 774.63C-27.59 789.54 -28.96 863.65 34.05 863.65S102.15 812.78 168.11 812.78S238.12 808.48 302.16 808.48S374.71 856.12 436.22 856.12S505.27 779.32 570.27 779.32S642.92 760.74 704.32 760.74S775 844.46 838.38 844.46S909.83 861.59 972.43 861.59S1043.12 809.66 1106.49 809.66S1173.86 778.35 1240.54 778.35S1313.87 818.08 1374.59 818.08S1444.2 874.81 1508.65 874.81S1578.11 824.92 1642.7 824.92S1712.96 791.27 1776.76 791.27S1846.82 845.75 1910.81 845.75S1982.39 813.93 2044.86 813.93S2118.69 864.78 2178.92 864.78S2252.02 771.07 2312.97 771.07S2383.7 820.44 2447.03 820.44L2380 1063 L-100 1063 Z;M-100 809.18C-27.79 761.63 -26.25 873.01 34.05 873.01S106.43 746.86 168.11 746.86S236.86 756.3 302.16 756.3S369.81 758.36 436.22 758.36S503.3 869.6 570.27 869.6S642.81 767.15 704.32 767.15S771.62 770.85 838.38 770.85S911.13 799.25 972.43 799.25S1042.05 834.19 1106.49 834.19S1177.88 763.48 1240.54 763.48S1307.88 821.13 1374.59 821.13S1443.38 767.72 1508.65 767.72S1581.68 802.26 1642.7 802.26S1710.1 810.41 1776.76 810.41S1849.6 846.67 1910.81 846.67S1982.84 848.31 2044.86 848.31S2116 845.91 2178.92 845.91S2252.79 807.74 2312.97 807.74S2384.19 846.25 2447.03 846.25L2380 1063 L-100 1063 Z;M-100 774.63C-27.59 789.54 -28.96 863.65 34.05 863.65S102.15 812.78 168.11 812.78S238.12 808.48 302.16 808.48S374.71 856.12 436.22 856.12S505.27 779.32 570.27 779.32S642.92 760.74 704.32 760.74S775 844.46 838.38 844.46S909.83 861.59 972.43 861.59S1043.12 809.66 1106.49 809.66S1173.86 778.35 1240.54 778.35S1313.87 818.08 1374.59 818.08S1444.2 874.81 1508.65 874.81S1578.11 824.92 1642.7 824.92S1712.96 791.27 1776.76 791.27S1846.82 845.75 1910.81 845.75S1982.39 813.93 2044.86 813.93S2118.69 864.78 2178.92 864.78S2252.02 771.07 2312.97 771.07S2383.7 820.44 2447.03 820.44L2380 1063 L-100 1063 Z"></animate>
  <animateTransform attributeName="transform" type="translate" dur="9.090909090909092s" begin="-6.818181818181818s" repeatCount="indefinite" values="0;10;0" calcMode="spline" keySplines="0.3 0 0.7 1;0.3 0 0.7 1"></animateTransform>
</path><path d="M-100 847.26C-29.65 848.38 -23.79 858.8 39.72 858.8S116.33 867.08 179.44 867.08S255.52 893.27 319.15 893.27S394.79 782.66 458.87 782.66S535.37 818.99 598.59 818.99S671.57 788.46 738.31 788.46S814.25 892.12 878.03 892.12S954.59 889.63 1017.75 889.63S1089.76 799.3 1157.46 799.3S1230.66 841.42 1297.18 841.42S1371.45 853.82 1436.9 853.82S1507.85 919.07 1576.62 919.07S1650.45 897.7 1716.34 897.7S1787.48 783.96 1856.06 783.96S1931.38 915.17 1995.77 915.17S2069.83 886.61 2135.49 886.61S2209.58 875.47 2275.21 875.47S2351.74 876.7 2414.93 876.7L2380 1063 L-100 1063 Z" fill="#7696b2" stroke-width="0">
  <animate attributeName="d" dur="4.545454545454546s" repeatCount="indefinite" values="M-100 847.26C-29.65 848.38 -23.79 858.8 39.72 858.8S116.33 867.08 179.44 867.08S255.52 893.27 319.15 893.27S394.79 782.66 458.87 782.66S535.37 818.99 598.59 818.99S671.57 788.46 738.31 788.46S814.25 892.12 878.03 892.12S954.59 889.63 1017.75 889.63S1089.76 799.3 1157.46 799.3S1230.66 841.42 1297.18 841.42S1371.45 853.82 1436.9 853.82S1507.85 919.07 1576.62 919.07S1650.45 897.7 1716.34 897.7S1787.48 783.96 1856.06 783.96S1931.38 915.17 1995.77 915.17S2069.83 886.61 2135.49 886.61S2209.58 875.47 2275.21 875.47S2351.74 876.7 2414.93 876.7L2380 1063 L-100 1063 Z;M-100 843.6C-25.44 791.34 -28.93 879.05 39.72 879.05S113.72 799.15 179.44 799.15S249.45 885.54 319.15 885.54S395.7 869.62 458.87 869.62S529.62 919.56 598.59 919.56S670.11 821.49 738.31 821.49S809.13 832.06 878.03 832.06S948.92 812.42 1017.75 812.42S1090.97 920.11 1157.46 920.11S1231.57 881.43 1297.18 881.43S1373.81 874.02 1436.9 874.02S1512.44 784.24 1576.62 784.24S1646.8 885.73 1716.34 885.73S1791.36 916.73 1856.06 916.73S1928.94 819.79 1995.77 819.79S2068.38 824.39 2135.49 824.39S2212 890.3 2275.21 890.3S2351.43 795.94 2414.93 795.94L2380 1063 L-100 1063 Z;M-100 847.26C-29.65 848.38 -23.79 858.8 39.72 858.8S116.33 867.08 179.44 867.08S255.52 893.27 319.15 893.27S394.79 782.66 458.87 782.66S535.37 818.99 598.59 818.99S671.57 788.46 738.31 788.46S814.25 892.12 878.03 892.12S954.59 889.63 1017.75 889.63S1089.76 799.3 1157.46 799.3S1230.66 841.42 1297.18 841.42S1371.45 853.82 1436.9 853.82S1507.85 919.07 1576.62 919.07S1650.45 897.7 1716.34 897.7S1787.48 783.96 1856.06 783.96S1931.38 915.17 1995.77 915.17S2069.83 886.61 2135.49 886.61S2209.58 875.47 2275.21 875.47S2351.74 876.7 2414.93 876.7L2380 1063 L-100 1063 Z"></animate>
  <animateTransform attributeName="transform" type="translate" dur="4.545454545454546s" begin="-3.9772727272727275s" repeatCount="indefinite" values="0;10;0" calcMode="spline" keySplines="0.3 0 0.7 1;0.3 0 0.7 1"></animateTransform>
</path></g>
</svg>